<svg width="59" height="40" viewBox="0 0 59 40" fill="none" xmlns="http://www.w3.org/2000/svg">
<g clip-path="url(#clip0_28455_3270)">
<path d="M37.8597 24.0545V22.2165C37.8597 19.0631 36.1598 17.3877 32.9342 17.3877H29.7444V28.9011H32.9342C36.1948 28.919 37.8597 27.2794 37.8597 24.0545ZM32.812 18.8825C35.2481 18.8825 36.2473 19.8557 36.2473 22.2161V24.0537C36.2473 26.4324 35.2131 27.4413 32.812 27.4413H31.3397V18.8829L32.812 18.8825ZM41.19 23.2254L43.0654 24.0902C44.2751 24.6487 44.4853 25.1532 44.4853 25.9279C44.4853 27.1174 43.8366 27.6576 42.3643 27.6576C41.0149 27.6576 39.9457 27.5497 39.2445 27.4596L39.1045 27.4417V28.757L39.192 28.7749C39.6301 28.8829 41.0495 29.0992 42.3468 29.0992C44.7658 29.0992 46.0977 27.964 46.0977 25.91C46.0977 24.3605 45.4144 23.4052 43.7491 22.6487L41.8561 21.8021C40.6643 21.2615 40.4538 20.7749 40.4538 20.0363C40.4538 19.0273 41.0499 18.6487 42.5923 18.6487C43.7316 18.6487 45.0463 18.7928 45.5545 18.8467L45.6946 18.865V17.5318L45.607 17.5135C45.2039 17.4056 43.8892 17.2075 42.5573 17.2075C40.0682 17.2075 38.8589 18.1442 38.8589 20.0541C38.8589 21.5497 39.5251 22.4685 41.19 23.2254ZM26.1336 33.4778L24.2406 32.6308C23.0492 32.0902 22.8387 31.6036 22.8387 30.865C22.8387 29.8561 23.4344 29.4778 24.9768 29.4778C26.1515 29.4778 27.5359 29.6215 27.939 29.6759L28.0794 29.6937V28.3605L27.9919 28.3427C27.6059 28.2343 26.274 28.0359 24.9418 28.0359C22.4531 28.0359 21.2434 28.973 21.2434 30.8829C21.2434 32.3784 21.9096 33.2976 23.5749 34.0363L25.4503 34.9011C26.6596 35.4596 26.8701 35.964 26.8701 36.7388C26.8701 37.9462 26.239 38.4685 24.7492 38.4685C23.3994 38.4685 22.3302 38.3605 21.6469 38.2704L21.5065 38.2526V39.5858L21.594 39.6036C22.0321 39.712 23.4519 39.9279 24.7492 39.9279C27.2028 39.9279 28.5001 38.8289 28.5001 36.7388C28.4825 35.1714 27.7985 34.2343 26.1336 33.4778ZM37.8422 30.9011C37.0535 30.9011 36.2473 31.1714 35.3707 31.7477C35.0026 31.1714 34.4069 30.9011 33.5482 30.9011C32.584 30.9011 31.7953 31.2794 31.2517 31.6576V31.1174H29.7094V39.6937H31.2517V32.9908C31.7953 32.6669 32.5665 32.3066 33.2501 32.3066C34.2314 32.3066 34.2314 32.8471 34.2314 34.0363V39.6937H35.7917V34.0545C35.7917 33.7124 35.7917 33.3337 35.7388 32.9733C36.4224 32.5772 37.1586 32.3431 37.6671 32.3431C38.7539 32.3431 38.7539 32.8832 38.7539 34.0728V39.7302H40.3138V34.0545C40.3313 32.7932 40.3313 30.9011 37.8422 30.9011ZM42.0312 31.1174H43.5915V39.6937H42.0312V31.1174ZM47.8684 28.9551H46.3082V31.1174H44.6782V32.3784L46.3082 32.5046V37.6759C46.3082 39.3155 46.8867 39.9283 48.4291 39.9283C49.0774 39.9283 49.7435 39.766 49.954 39.6937L50.0415 39.6576V38.4867L49.9014 38.5046C49.6384 38.5407 49.0073 38.5768 48.5692 38.5768C47.9031 38.5768 47.868 38.5225 47.868 37.6036V32.4867H50.0415V31.0992H47.868V28.9555L47.8684 28.9551ZM55.2301 30.9011C54.371 30.9011 53.5298 31.0992 52.7057 31.5135V27.7298H51.1458V39.712H52.7057V32.8829C53.2667 32.6126 54.143 32.3427 54.9667 32.3427C55.9309 32.3427 56.3865 32.6308 56.3865 34.3065V39.712H57.9464V34.2704C57.9464 32.0001 57.0526 30.9011 55.2297 30.9011H55.2301Z" fill="#4D4D4D"/>
<path d="M14.1098 0H0.0525513C0.0525513 2.63068 0.73619 5.09903 1.9455 7.22524C4.38163 11.5495 8.92159 14.4505 14.1273 14.4505C19.333 14.4505 23.8726 11.5495 26.3091 7.22524C23.8551 2.90097 19.3155 0 14.1098 0Z" fill="url(#paint0_radial_28455_3270)"/>
<path d="M14.7409 15.6934C21.0508 15.6934 24.6262 12.3781 26.274 7.2251C23.8379 11.5494 19.298 14.4503 14.0923 14.4503C8.88655 14.4503 4.34698 17.3513 1.91047 21.6756C0.718666 23.7835 0.0350268 26.2162 0.0175171 28.8107C0.385601 26.6845 1.54238 24.6845 2.54119 22.9187C4.99521 18.5944 9.53517 15.6934 14.7409 15.6934Z" fill="url(#paint1_linear_28455_3270)"/>
<path d="M26.5021 7.63947C26.4316 7.49539 26.3441 7.35131 26.2737 7.2251C24.6262 12.3785 21.0508 15.6934 14.7409 15.6934C9.53518 15.6934 4.99522 18.5944 2.55909 22.9187C1.5599 24.6845 0.403118 26.6845 0.0350342 28.8107V28.9008H14.0923C19.298 28.9008 23.8375 25.9999 26.274 21.6756C27.4658 19.5494 28.167 17.081 28.167 14.4503C28.167 11.982 27.5709 9.65733 26.5021 7.63947Z" fill="url(#paint2_radial_28455_3270)"/>
</g>
<defs>
<radialGradient id="paint0_radial_28455_3270" cx="0" cy="0" r="1" gradientUnits="userSpaceOnUse" gradientTransform="translate(7.26074 -36.9932) scale(2851.73 2909.45)">
<stop offset="0.2384" stop-color="#E7B041"/>
<stop offset="0.8817" stop-color="#C7352D"/>
</radialGradient>
<linearGradient id="paint1_linear_28455_3270" x1="2537.26" y1="310.331" x2="220.022" y2="2122.63" gradientUnits="userSpaceOnUse">
<stop offset="0.1" stop-color="#C9382F"/>
<stop offset="0.1968" stop-color="#D15734"/>
<stop offset="0.4753" stop-color="#E7AE40"/>
<stop offset="0.9" stop-color="#C9382F"/>
</linearGradient>
<radialGradient id="paint2_radial_28455_3270" cx="0" cy="0" r="1" gradientUnits="userSpaceOnUse" gradientTransform="translate(1973.47 30.5698) scale(2662.96 2716.88)">
<stop offset="0.2384" stop-color="#E7AE40"/>
<stop offset="0.8517" stop-color="#C9382F"/>
</radialGradient>
<clipPath id="clip0_28455_3270">
<rect width="59" height="40" fill="white"/>
</clipPath>
</defs>
</svg>
