<svg width="58" height="36" viewBox="0 0 58 36" fill="none" xmlns="http://www.w3.org/2000/svg">
<g clip-path="url(#clip0_28508_83)">
<path fill-rule="evenodd" clip-rule="evenodd" d="M35.5553 3.65795C33.0898 4.19376 31.7242 5.02595 29.1284 7.57433C23.7882 12.817 23.6894 12.9065 22.6299 13.4576C22.0548 13.7568 21.1137 14.1581 20.5386 14.3496L19.493 14.6977L9.74609 14.7448L-0.000793457 14.792V17.0256V19.2592H10.1437C21.0413 19.2592 21.5492 19.2294 23.4095 18.478C24.9786 17.8442 26.0242 16.9969 29.7253 13.3599C33.7063 9.44797 34.2566 9.0457 36.5991 8.33451C37.7036 7.99916 37.8334 7.99438 47.3931 7.94284L57.0694 7.89056L57.028 5.69516L56.9868 3.4999L46.7544 3.47391C38.4448 3.45285 36.3404 3.48736 35.5553 3.65795ZM10.5303 26.7782C9.11258 27.2491 8.35464 27.8877 7.79702 29.0807C7.23297 30.287 7.22878 31.8301 7.78611 33.002C8.56153 34.632 9.79629 35.4338 11.5628 35.4545C12.1451 35.4612 12.8606 35.4113 13.1527 35.3435C13.6342 35.2317 13.7001 35.2562 13.8591 35.6049C14.019 35.9562 14.1123 35.9895 14.9338 35.9895C15.4284 35.9895 15.8332 35.9247 15.8332 35.8454C15.8332 35.7661 15.6319 35.3835 15.3857 34.9954C14.9409 34.2939 14.94 34.2878 15.229 33.9801C16.1649 32.9839 16.4897 30.6287 15.8803 29.2599C15.1802 27.6874 13.8408 26.7553 12.1215 26.6439C11.5209 26.605 10.8915 26.6581 10.5303 26.7782ZM0.0988414 26.8278C0.0440198 26.8824 -0.000793457 28.8318 -0.000793457 31.1597V35.392H2.77016H5.54112L5.4963 34.5331C5.46762 33.9825 5.38442 33.6675 5.26477 33.6555C5.16214 33.6452 4.33863 33.6285 3.43489 33.6182L1.79174 33.5995V32.7779V31.9563H3.28551H4.77929V31.0601V30.1638H3.28551H1.79174V29.3469V28.5299L3.62161 28.4879L5.45149 28.446L5.4963 27.587L5.54112 26.7281H2.8698C1.40052 26.7281 0.153514 26.7729 0.0988414 26.8278ZM18.2242 29.6783C18.2249 32.7805 18.3114 33.392 18.8654 34.2146C19.8572 35.6867 22.7615 35.9574 24.1035 34.7026C24.9911 33.8727 25.0878 33.4029 25.0914 29.9024L25.0946 26.7281H24.2889H23.4832L23.4245 29.6036C23.3775 31.8993 23.3163 32.5712 23.1211 32.9355C22.6335 33.8451 21.382 34.0309 20.5784 33.3133L20.0905 32.8777L20.0446 29.8029L19.9988 26.7281H19.111H18.2233L18.2242 29.6783ZM27.7834 31.0675V35.407L28.6424 35.3621L29.5013 35.3173L29.5409 31.0227L29.5806 26.7281H28.6819H27.7834V31.0675ZM32.2648 30.9107V35.2053C32.2648 35.267 32.6502 35.3173 33.1213 35.3173H33.9777L33.9802 34.1538L33.9826 32.9903L35.0283 32.9418C37.2868 32.8371 38.3892 31.8282 38.3892 29.8662C38.3892 28.7434 38.1431 28.1314 37.4446 27.5182C36.712 26.875 36.0826 26.7299 34.02 26.729L32.2648 26.7281V30.9107ZM40.5481 26.9169C40.5082 27.0208 40.4935 28.9534 40.5153 31.2115L40.5552 35.3173H41.4515H42.3478L42.304 34.0103L42.2602 32.7032H42.93C42.9583 32.7032 42.9853 32.7031 43.0113 32.7031C43.2252 32.7023 43.3671 32.7019 43.4881 32.7519C43.727 32.8507 43.8844 33.1457 44.3527 34.0228C44.3817 34.0771 44.4117 34.1334 44.4431 34.1921L45.0446 35.3173L45.8444 35.3632C47.0357 35.4315 47.129 35.3571 46.7018 34.6801C46.5043 34.3673 46.1351 33.6999 45.8813 33.1972L45.4199 32.283L45.7715 32.0527C46.6401 31.4834 47.0809 30.0328 46.7542 28.8179C46.5332 27.9953 45.707 27.1631 44.8595 26.9093C44.0238 26.6588 40.6449 26.6649 40.5481 26.9169ZM51.3143 26.8712C51.2614 26.9568 51.2545 27.0269 51.2992 27.0269C51.3437 27.0269 51.1085 27.7832 50.7762 28.7074C50.444 29.6317 49.8113 31.3962 49.37 32.6285C48.9287 33.8609 48.5209 34.9902 48.4637 35.1382C48.3693 35.3825 48.4461 35.4031 49.2964 35.3623L50.2328 35.3173L50.5302 34.5331L50.8276 33.7489H52.4403H54.053L54.3449 34.5331L54.6368 35.3173L55.4757 35.3621C56.0895 35.3949 56.3146 35.3545 56.3146 35.2117C56.3146 35.1043 55.7362 33.3364 55.0293 31.2831C54.3225 29.2297 53.696 27.3816 53.6373 27.1763C53.5379 26.8289 53.4565 26.7998 52.4705 26.7592C51.8483 26.7335 51.3708 26.7798 51.3143 26.8712ZM12.9921 28.7074C13.9735 29.2088 14.2503 29.6807 14.3109 30.9557C14.3471 31.7155 14.3002 32.1136 14.1512 32.3126C13.9515 32.5795 13.9233 32.5661 13.605 32.0512C13.2804 31.5258 13.2408 31.5082 12.3853 31.5082C11.8991 31.5082 11.5013 31.5663 11.5013 31.6374C11.5013 31.7085 11.6229 31.9269 11.7715 32.1229C11.9201 32.3189 12.1838 32.7261 12.3572 33.0278C12.7097 33.641 12.6239 33.7489 11.783 33.7489C10.869 33.7489 9.86799 33.1458 9.45451 32.3461C9.18294 31.8209 9.16068 30.3332 9.41702 29.8458C10.1049 28.5383 11.6796 28.0368 12.9921 28.7074ZM36.3159 28.9538C36.7093 29.4396 36.6754 30.205 36.2379 30.7135C35.9159 31.088 35.7825 31.1309 34.9309 31.1327L33.9826 31.1348L33.9391 29.8105L33.8958 28.4863L34.9655 28.5466C35.8627 28.5974 36.0805 28.663 36.3159 28.9538ZM44.5036 28.7395C45.0046 28.9985 45.1962 29.598 44.9604 30.1674C44.7376 30.7051 44.2404 30.9107 43.1623 30.9107H42.2731L42.2752 30.0518C42.2786 28.6015 42.331 28.5207 43.2688 28.5207C43.7152 28.5207 44.2708 28.6191 44.5036 28.7395ZM53.2487 31.2468L53.4603 31.9563H52.4249H51.3894L51.91 30.4999C52.1964 29.6989 52.4355 29.0099 52.4416 28.9688C52.4563 28.8691 52.9836 30.3574 53.2487 31.2468Z" fill="black"/>
<path fill-rule="evenodd" clip-rule="evenodd" d="M18.2648 8.62969C20.4471 7.88714 21.2812 7.25811 25.0946 3.47885L28.605 0L30.1735 1.56697L31.7419 3.13394L27.41 7.42511C24.5421 10.2659 23.173 11.7803 21.4692 12.5906C19.2819 13.6309 16.5428 13.511 9.37265 13.5477L-0.000793457 13.5955V11.3554V9.11532L8.55107 9.07021L17.1029 9.0251L18.2648 8.62969Z" fill="#36A94E"/>
<path fill-rule="evenodd" clip-rule="evenodd" d="M38.0392 9.33234C35.2227 9.8937 34.5678 10.3571 29.5768 15.3186L25.3195 19.5508L26.881 21.1185L28.4424 22.6862L32.0345 19.1429C35.9177 15.3124 36.5945 14.8016 38.7635 14.0664L39.9585 13.6613L48.473 13.5847L56.9876 13.5082V11.3422V9.17624L48.0249 9.15234C40.9732 9.13352 38.8442 9.17191 38.0392 9.33234Z" fill="#33AE53"/>
</g>
<defs>
<clipPath id="clip0_28508_83">
<rect width="57.2116" height="36" fill="white" transform="translate(-0.000793457)"/>
</clipPath>
</defs>
</svg>
