<svg width="82" height="40" viewBox="0 0 82 40" fill="none" xmlns="http://www.w3.org/2000/svg">
<g clip-path="url(#clip0_28455_3234)">
<path d="M10.9028 11.7785C9.52556 11.3277 8.08557 11.1077 6.63908 11.1272C3.49658 11.1272 0.403259 12.6302 0.403259 16.6682C0.403259 22.6803 8.22262 21.2474 8.22262 24.6843C8.22262 26.3476 6.39318 27.054 5.05553 27.054C3.64005 27.025 2.25337 26.6413 1.01799 25.9368L0.688494 29.2083C2.1687 29.6722 3.70852 29.9086 5.25716 29.9097C8.85702 29.9097 11.9503 28.4067 11.9503 24.3987C11.9503 18.3316 4.1359 19.6642 4.1359 16.533C4.1359 14.554 5.71944 14.028 6.94398 14.028C8.19326 14.0352 9.42806 14.3011 10.5733 14.8095L10.9028 11.8035V11.7785Z" fill="#636363"/>
<path d="M17.5223 29.5993H21.1024V14.2987H26.2072V11.438H12.4175V14.2987H17.5223V29.5993Z" fill="#636363"/>
<path d="M28.1202 29.5993H38.6935V26.7386H31.6954V21.6434H38.0542V18.7777H31.6954V14.3037H38.6394V11.438H28.1202V29.5993Z" fill="#636363"/>
<path d="M42.6327 29.5993H46.2031V11.438H42.6327V29.5993Z" fill="#636363"/>
<path d="M62.4565 26.2978C61.2084 26.8166 59.87 27.0722 58.5222 27.0493C54.7207 27.0493 52.4684 24.2687 52.4684 20.5713C52.4684 16.8739 54.7699 13.9882 58.4485 13.9882C59.796 13.9418 61.13 14.2746 62.3041 14.9501L62.5598 11.884C61.2676 11.3934 59.9011 11.1374 58.5222 11.1274C52.4684 11.1274 48.7407 14.6345 48.7407 20.8369C48.7407 26.9741 52.7536 29.91 58.5222 29.91C59.8933 29.8785 61.2562 29.6869 62.5844 29.3389L62.4565 26.2978Z" fill="#636363"/>
<path fill-rule="evenodd" clip-rule="evenodd" d="M63.7991 20.4711C63.7991 26.0373 66.8137 29.91 72.5381 29.91C78.1788 29.91 81.2721 25.9571 81.2721 20.4711C81.2721 14.9852 78.1296 11.1274 72.5381 11.1274C66.8678 11.1274 63.7991 14.9 63.7991 20.4711ZM67.5268 20.4711C67.5268 17.2697 69.0021 13.9882 72.5381 13.9882C76.074 13.9882 77.5444 17.2697 77.5444 20.4711C77.5444 23.6725 76.1871 27.0543 72.5381 27.0543C68.889 27.0543 67.5268 23.7527 67.5268 20.4761V20.4711Z" fill="#636363"/>
<path d="M41.2262 1.69339C44.4917 0.841683 47.885 2.14429 50.7127 0C48.4407 2.39479 48.8735 5.74148 47.2112 8.54208C46.0309 10.521 43.4491 9.98998 41.5164 9.72946C40.6803 9.61924 42.0672 11.7034 41.7623 12.7104C41.5901 13.2866 40.4738 13.8828 40.0066 13.3367C38.8755 12.024 39.7263 10.02 40.3607 8.51703C40.523 8.14128 39.3771 8.13126 38.8853 7.20942C37.8427 5.13527 38.8853 2.28958 41.2115 1.6984L41.2262 1.69339Z" fill="#5FA028"/>
<path d="M0 35.5709H0.747511V35.9918C0.859535 35.8305 1.01021 35.7012 1.1852 35.616C1.36588 35.533 1.56241 35.4919 1.76059 35.4958C1.90579 35.4847 2.0515 35.5089 2.18573 35.5664C2.31996 35.6239 2.43888 35.713 2.53269 35.8264C2.71663 36.0829 2.80863 36.396 2.79333 36.7132V38.6671H2.00156V37.0138C2.00945 36.7931 1.9795 36.5727 1.91304 36.3625C1.87696 36.2784 1.81425 36.209 1.73491 36.1654C1.65558 36.1218 1.56419 36.1065 1.47535 36.122C1.36459 36.1136 1.25393 36.1397 1.15815 36.197C1.06237 36.2543 0.986026 36.34 0.939307 36.4427C0.831102 36.6616 0.777077 36.9041 0.781936 37.1491V38.6521H0V35.5709Z" fill="#5FA028"/>
<path d="M3.8015 35.7314C4.13297 35.5756 4.49378 35.4952 4.85883 35.4959C5.21355 35.4681 5.56534 35.5792 5.8424 35.8065C5.95592 35.9446 6.04134 36.1043 6.09368 36.2763C6.14603 36.4483 6.16426 36.6293 6.1473 36.8085V37.9759L6.19648 38.6673H5.51782C5.50315 38.5878 5.49329 38.5075 5.48831 38.4268C5.48831 38.3516 5.48831 38.2765 5.48831 38.2013C5.39513 38.3721 5.25496 38.5114 5.08505 38.6021C4.9173 38.6942 4.72973 38.7424 4.53917 38.7424C4.26986 38.7495 4.0062 38.6629 3.79166 38.4969C3.68945 38.4185 3.60743 38.316 3.55262 38.1982C3.4978 38.0804 3.47183 37.9508 3.47692 37.8206C3.46885 37.6287 3.51676 37.4386 3.61462 37.2745C3.70279 37.1333 3.82684 37.019 3.97362 36.9438C4.1282 36.8662 4.29441 36.8154 4.4654 36.7935C4.64787 36.7672 4.83191 36.7538 5.0162 36.7534H5.45389C5.46174 36.6631 5.4514 36.572 5.42349 36.4859C5.39558 36.3997 5.3507 36.3203 5.2916 36.2524C5.14418 36.1245 4.95377 36.0598 4.76047 36.0721C4.59308 36.0729 4.42696 36.1017 4.26869 36.1572C4.10864 36.2188 3.95797 36.3031 3.82117 36.4077L3.8015 35.7314ZM4.72605 38.1562C4.83259 38.1572 4.93787 38.1328 5.0335 38.085C5.12914 38.0371 5.21247 37.9672 5.27685 37.8807C5.34447 37.7911 5.39 37.6863 5.40963 37.5751C5.43624 37.4585 5.44945 37.3391 5.44897 37.2194H5.10472C4.8915 37.2147 4.67941 37.2521 4.48016 37.3296C4.39763 37.3637 4.32815 37.4241 4.28207 37.5018C4.23598 37.5794 4.21577 37.6701 4.22443 37.7604C4.2205 37.8162 4.23118 37.872 4.25538 37.9222C4.27957 37.9724 4.31641 38.0151 4.36213 38.046C4.46898 38.121 4.59637 38.1595 4.72605 38.1562Z" fill="#5FA028"/>
<path d="M7.26366 36.1574H6.67844V35.5712H7.26366V34.95L8.05543 34.6895V35.5712H8.75868V36.1574H8.05543V37.6053C8.04856 37.7354 8.07572 37.8651 8.13412 37.981C8.16645 38.0292 8.2109 38.0676 8.2628 38.0923C8.31471 38.117 8.37218 38.127 8.42919 38.1213C8.55499 38.1282 8.67997 38.0968 8.78819 38.0311L8.81278 38.6724C8.62191 38.7237 8.4249 38.7473 8.22755 38.7426C8.09705 38.7519 7.96607 38.7331 7.84319 38.6874C7.7203 38.6416 7.60829 38.5699 7.51447 38.477C7.33911 38.2747 7.24901 38.0101 7.26366 37.7406V36.1574Z" fill="#5FA028"/>
<path d="M12.152 38.6675H11.3995V38.2466C11.2753 38.3972 11.1232 38.5215 10.952 38.6124C10.7786 38.7024 10.586 38.7472 10.3914 38.7426C10.2455 38.7533 10.0992 38.729 9.96424 38.6715C9.82928 38.6141 9.70944 38.5252 9.61436 38.412C9.42941 38.1574 9.33412 37.8468 9.34388 37.5302V35.5713H10.1357V37.2246C10.1281 37.4436 10.1581 37.6623 10.2242 37.8709C10.2589 37.9527 10.3192 38.0207 10.3956 38.0641C10.4721 38.1076 10.5605 38.1242 10.6471 38.1114C10.7579 38.1199 10.8687 38.0944 10.9651 38.0381C11.0616 37.9818 11.1392 37.8974 11.1881 37.7957C11.3004 37.5724 11.3594 37.3252 11.3602 37.0743V35.5713H12.152V38.6675Z" fill="#5FA028"/>
<path d="M13.0421 35.5712H13.77V36.2726C13.8109 36.0804 13.9087 35.9055 14.0503 35.7716C14.1202 35.6901 14.2063 35.6247 14.303 35.5798C14.3997 35.5349 14.5046 35.5114 14.6109 35.5111H14.7289C14.7715 35.5074 14.8143 35.5074 14.8568 35.5111V36.3227C14.8106 36.2989 14.7607 36.2837 14.7093 36.2776C14.6406 36.2697 14.5713 36.2697 14.5027 36.2776C14.4032 36.2727 14.3042 36.2964 14.2173 36.346C14.1303 36.3956 14.0588 36.4691 14.0109 36.5582C13.8805 36.8746 13.8266 37.2182 13.8536 37.5602V38.6975H13.0421V35.5712Z" fill="#5FA028"/>
<path d="M15.5158 35.7314C15.8473 35.5756 16.2081 35.4952 16.5731 35.4959C16.9278 35.4681 17.2796 35.5792 17.5567 35.8065C17.6702 35.9446 17.7556 36.1043 17.808 36.2763C17.8603 36.4483 17.8785 36.6293 17.8616 36.8085V37.9759L17.9108 38.6673H17.2124C17.2076 38.5872 17.2076 38.5069 17.2124 38.4268C17.2124 38.3516 17.2124 38.2765 17.2124 38.2013C17.1193 38.3721 16.9791 38.5114 16.8092 38.6021C16.6414 38.6942 16.4538 38.7424 16.2633 38.7424C15.994 38.7495 15.7303 38.6629 15.5158 38.4969C15.4136 38.4185 15.3316 38.316 15.2767 38.1982C15.2219 38.0804 15.1959 37.9508 15.201 37.8206C15.193 37.6287 15.2409 37.4386 15.3387 37.2745C15.4269 37.1333 15.551 37.019 15.6977 36.9438C15.8523 36.8662 16.0185 36.8154 16.1895 36.7935C16.3655 36.7681 16.5429 36.7547 16.7207 36.7534H17.1583C17.1662 36.6631 17.1558 36.572 17.1279 36.4859C17.1 36.3997 17.0552 36.3203 16.9961 36.2524C16.8511 36.1269 16.6647 36.0624 16.4748 36.0721C16.3074 36.0729 16.1412 36.1017 15.983 36.1572C15.8229 36.2188 15.6723 36.3031 15.5355 36.4077L15.5158 35.7314ZM16.4403 38.1562C16.5469 38.1572 16.6522 38.1328 16.7478 38.085C16.8434 38.0371 16.9268 37.9672 16.9911 37.8807C17.0567 37.7955 17.1021 37.696 17.1239 37.5901C17.1505 37.4735 17.1637 37.3541 17.1633 37.2344H16.819C16.6058 37.2297 16.3937 37.2672 16.1944 37.3446C16.1119 37.3787 16.0424 37.4391 15.9964 37.5168C15.9503 37.5944 15.9301 37.6852 15.9387 37.7755C15.9348 37.8312 15.9455 37.8871 15.9697 37.9372C15.9939 37.9874 16.0307 38.0301 16.0764 38.061C16.185 38.1307 16.3122 38.164 16.4403 38.1562Z" fill="#5FA028"/>
<path d="M18.7369 34.1582H19.5287V38.6672H18.7369V34.1582Z" fill="#5FA028"/>
<path d="M20.4189 35.5709H21.1467V35.9918C21.2587 35.8305 21.4094 35.7012 21.5844 35.616C21.7651 35.533 21.9616 35.4919 22.1598 35.4958C22.305 35.4847 22.4507 35.5089 22.5849 35.5664C22.7191 35.6239 22.8381 35.713 22.9319 35.8264C23.1158 36.0829 23.2078 36.396 23.1925 36.7132V38.6671H22.4204V37.0138C22.4283 36.7931 22.3984 36.5727 22.3319 36.3625C22.2962 36.2803 22.2351 36.2122 22.1578 36.1687C22.0805 36.1253 21.9914 36.1089 21.904 36.122C21.7933 36.1136 21.6826 36.1397 21.5868 36.197C21.4911 36.2543 21.4147 36.34 21.368 36.4427C21.2598 36.6616 21.2058 36.9041 21.2106 37.1491V38.6521H20.4189V35.5709Z" fill="#5FA028"/>
<path d="M25.3465 37.8308L26.0891 35.5713H26.8907L25.7547 38.6424C25.6219 39.0082 25.5187 39.2637 25.4449 39.414C25.3671 39.5732 25.2544 39.7121 25.1154 39.8198C24.9332 39.9502 24.7131 40.0138 24.4908 40.0001C24.3008 40.0014 24.1116 39.9726 23.9302 39.915L23.9843 39.3238C24.1169 39.3621 24.2547 39.379 24.3925 39.3739C24.4616 39.3771 24.5307 39.3653 24.5951 39.3394C24.6595 39.3135 24.7178 39.274 24.7662 39.2236C24.8141 39.1694 24.8509 39.106 24.8745 39.0372C24.8981 38.9684 24.9081 38.8956 24.9039 38.8228L23.7433 35.5713H24.6138L25.3465 37.8308Z" fill="#5FA028"/>
<path d="M30.9283 36.2175C30.814 36.1784 30.6974 36.1466 30.5791 36.1224C30.4611 36.0968 30.3407 36.085 30.2201 36.0873C30.1068 36.0835 29.9946 36.1112 29.8955 36.1674C29.8497 36.1936 29.8121 36.2324 29.7869 36.2794C29.7616 36.3263 29.7499 36.3795 29.7529 36.433C29.7529 36.5532 29.9005 36.6684 30.1906 36.7636C30.4327 36.84 30.6641 36.9477 30.8791 37.0843C30.9706 37.1621 31.0415 37.262 31.0853 37.3749C31.1291 37.4878 31.1444 37.6101 31.1299 37.7306C31.1387 37.8792 31.1093 38.0276 31.0446 38.1612C30.9799 38.2947 30.8822 38.4088 30.7611 38.4921C30.4917 38.6679 30.1759 38.7554 29.8562 38.7426C29.7098 38.7424 29.5636 38.7323 29.4185 38.7125C29.2627 38.6877 29.1084 38.6543 28.9562 38.6123L29.0054 37.946C29.1269 38.0127 29.2557 38.0649 29.389 38.1013C29.5171 38.1377 29.6494 38.1562 29.7824 38.1564C29.9085 38.1618 30.0338 38.1342 30.1463 38.0763C30.1973 38.0484 30.2392 38.0062 30.2671 37.9546C30.295 37.9031 30.3077 37.8444 30.3037 37.7857C30.3037 37.6254 30.0726 37.47 29.6152 37.3197C29.4216 37.2824 29.2469 37.1774 29.1212 37.0228C28.9955 36.8682 28.9267 36.6738 28.9267 36.4731C28.9202 36.3332 28.9488 36.194 29.01 36.0686C29.0711 35.9432 29.1626 35.8358 29.2759 35.7566C29.5247 35.584 29.8209 35.4963 30.1218 35.5061C30.2601 35.5039 30.3983 35.514 30.5349 35.5362L30.9824 35.6213L30.9283 36.2175Z" fill="#5FA028"/>
<path d="M33.0675 37.8308L33.8101 35.5713H34.6117L33.4708 38.6424C33.338 39.0082 33.2347 39.2637 33.1659 39.414C33.0878 39.5745 32.9731 39.7136 32.8315 39.8198C32.6507 39.9491 32.4324 40.0126 32.2118 40.0001C32.0218 40.0014 31.8326 39.9726 31.6512 39.915L31.7004 39.3238C31.8331 39.3618 31.9708 39.3787 32.1086 39.3739C32.1785 39.3778 32.2485 39.3664 32.3138 39.3405C32.3791 39.3145 32.4383 39.2747 32.4872 39.2236C32.582 39.113 32.6313 38.9695 32.6249 38.8228L31.4742 35.5713H32.3495L33.0675 37.8308Z" fill="#5FA028"/>
<path d="M36.9477 36.2176C36.8334 36.1784 36.7168 36.1466 36.5985 36.1224C36.4806 36.0968 36.3601 36.0851 36.2395 36.0873C36.1262 36.0835 36.014 36.1112 35.915 36.1675C35.8692 36.1937 35.8315 36.2324 35.8063 36.2794C35.7811 36.3263 35.7693 36.3796 35.7723 36.433C35.7723 36.5532 35.9199 36.6685 36.21 36.7637C36.4465 36.838 36.6729 36.9424 36.8838 37.0743C36.9753 37.1521 37.0461 37.252 37.09 37.3649C37.1338 37.4778 37.1491 37.6001 37.1346 37.7206C37.1434 37.8692 37.114 38.0176 37.0493 38.1512C36.9846 38.2847 36.8869 38.3988 36.7657 38.4821C36.4964 38.6579 36.1805 38.7453 35.8609 38.7326C35.7145 38.7324 35.5683 38.7223 35.4232 38.7025C35.2674 38.6777 35.1131 38.6443 34.9609 38.6023L35.0101 37.936C35.1316 38.0027 35.2603 38.0549 35.3937 38.0913C35.5218 38.1277 35.6541 38.1462 35.7871 38.1464C35.914 38.1488 36.0393 38.1177 36.151 38.0562C36.2019 38.0284 36.2439 37.9862 36.2718 37.9346C36.2997 37.8831 36.3124 37.8244 36.3084 37.7657C36.3084 37.6053 36.0772 37.45 35.6199 37.2997C35.4263 37.2624 35.2516 37.1574 35.1259 37.0028C35.0002 36.8482 34.9314 36.6538 34.9314 36.453C34.9249 36.3132 34.9535 36.174 35.0146 36.0486C35.0757 35.9232 35.1673 35.8158 35.2806 35.7366C35.5294 35.5639 35.8255 35.4762 36.1264 35.4861C36.2647 35.4839 36.4029 35.4939 36.5395 35.5162L36.987 35.6013L36.9477 36.2176Z" fill="#5FA028"/>
<path d="M38.0837 36.1574H37.4985V35.5712H38.0837V34.95L38.8706 34.6895V35.5712H39.5738V36.1574H38.8509V37.6053C38.8453 37.7359 38.8742 37.8656 38.9345 37.981C38.9653 38.0296 39.0087 38.0685 39.06 38.0933C39.1112 38.118 39.1683 38.1278 39.2247 38.1213C39.3505 38.1282 39.4754 38.0968 39.5837 38.0311V38.6724C39.3929 38.724 39.1958 38.7477 38.9984 38.7426C38.7597 38.7415 38.5306 38.6463 38.3591 38.477C38.2711 38.3776 38.2036 38.2612 38.1605 38.1347C38.1175 38.0082 38.0997 37.8742 38.1083 37.7406L38.0837 36.1574Z" fill="#5FA028"/>
<path d="M42.6131 38.4922C42.2934 38.6681 41.9336 38.7545 41.5705 38.7427C41.3577 38.7556 41.1445 38.725 40.9435 38.6527C40.7425 38.5805 40.5577 38.4679 40.4 38.3218C40.2544 38.1635 40.1422 37.9765 40.0703 37.7722C39.9984 37.568 39.9684 37.351 39.982 37.1345C39.9616 36.715 40.0831 36.3012 40.3263 35.9621C40.4644 35.8104 40.6318 35.6893 40.8179 35.6065C41.0041 35.5237 41.205 35.481 41.4082 35.481C41.6113 35.481 41.8123 35.5237 41.9984 35.6065C42.1846 35.6893 42.352 35.8104 42.4901 35.9621C42.7318 36.3797 42.8465 36.8609 42.8196 37.3449H40.7344C40.7298 37.4536 40.7495 37.562 40.7921 37.6619C40.8347 37.7617 40.8991 37.8503 40.9803 37.921C41.1564 38.0664 41.3785 38.1412 41.6049 38.1315C41.7723 38.1305 41.9384 38.1017 42.0967 38.0463C42.2677 37.9843 42.4325 37.9054 42.5885 37.8108L42.6131 38.4922ZM42.0819 36.8138C42.0849 36.6329 42.0277 36.4564 41.9196 36.3128C41.8597 36.2411 41.7837 36.1851 41.6982 36.1494C41.6127 36.1136 41.52 36.0993 41.4279 36.1074C41.3364 36.1017 41.2449 36.1167 41.1599 36.1514C41.0749 36.186 40.9984 36.2395 40.9361 36.3078C40.8165 36.4486 40.7427 36.6236 40.7246 36.8088L42.0819 36.8138Z" fill="#5FA028"/>
<path d="M43.5032 35.5712H44.2605V36.0021C44.3682 35.8394 44.5157 35.7081 44.6884 35.6213C44.8409 35.5422 45.009 35.4994 45.1802 35.496C45.3701 35.4903 45.5583 35.5352 45.726 35.6263C45.8849 35.7247 46.009 35.8721 46.0801 36.0471C46.1641 35.8704 46.3022 35.7263 46.4735 35.6363C46.6446 35.5436 46.8355 35.4954 47.0293 35.496C47.1699 35.4824 47.3117 35.5051 47.4415 35.562C47.5713 35.6189 47.6849 35.7082 47.7719 35.8217C47.9329 36.0891 48.0101 36.4002 47.9932 36.7135V38.6674H47.1768V36.8187C47.1832 36.648 47.1564 36.4778 47.0981 36.3177C47.0489 36.1974 46.9211 36.1323 46.7194 36.1323C46.6333 36.1315 46.5484 36.1537 46.4733 36.1968C46.3982 36.2399 46.3355 36.3023 46.2916 36.3778C46.1641 36.6222 46.1078 36.8985 46.1293 37.1744V38.6774H45.3424V36.8187C45.3464 36.6482 45.3198 36.4784 45.2638 36.3177C45.2146 36.1974 45.0867 36.1323 44.8851 36.1323C44.7989 36.1315 44.714 36.1537 44.6389 36.1968C44.5638 36.2399 44.5012 36.3023 44.4572 36.3778C44.3298 36.6222 44.2735 36.8985 44.2949 37.1744V38.6774H43.5032V35.5712Z" fill="#5FA028"/>
<path d="M50.5209 34.1582H51.3127V35.9718C51.4194 35.8273 51.5552 35.7077 51.711 35.6211C51.958 35.5011 52.2372 35.4685 52.5044 35.5284C52.7717 35.5883 53.0117 35.7373 53.1864 35.9518C53.4042 36.2977 53.5124 36.7035 53.4962 37.1141C53.5134 37.5264 53.4052 37.9341 53.1864 38.2815C53.077 38.4399 52.9283 38.566 52.7556 38.647C52.5828 38.7279 52.3921 38.7608 52.2028 38.7424C52.0222 38.7438 51.8432 38.7081 51.6766 38.6372C51.5099 38.5609 51.3682 38.4374 51.2684 38.2815V38.6672H50.5013L50.5209 34.1582ZM51.9963 38.1061C52.0982 38.1075 52.1984 38.0796 52.2854 38.0255C52.3724 37.9715 52.4427 37.8934 52.4881 37.8005C52.5952 37.5866 52.6493 37.3492 52.6454 37.1091C52.6502 36.8717 52.5996 36.6364 52.4979 36.4227C52.4521 36.3309 52.3814 36.2542 52.2943 36.2019C52.2072 36.1495 52.1072 36.1236 52.0061 36.1271C51.8984 36.1222 51.7914 36.1483 51.6975 36.2023C51.6036 36.2564 51.5265 36.3362 51.475 36.4328C51.3521 36.6358 51.2889 36.8706 51.293 37.1091C51.287 37.3523 51.3447 37.5926 51.4602 37.8055C51.5124 37.9056 51.5926 37.9877 51.6907 38.0412C51.7888 38.0948 51.9003 38.1173 52.011 38.1061H51.9963Z" fill="#5FA028"/>
<path d="M56.978 38.6675H56.2256V38.2466C56.1014 38.3972 55.9493 38.5215 55.7781 38.6124C55.6047 38.7024 55.412 38.7472 55.2175 38.7426C55.0723 38.7537 54.9265 38.7295 54.7923 38.672C54.6581 38.6146 54.5392 38.5254 54.4454 38.412C54.2618 38.1572 54.1697 37.8459 54.1847 37.5302V35.5713H54.9765V37.2246C54.969 37.4436 54.9989 37.6623 55.065 37.8709C55.0998 37.9527 55.16 38.0207 55.2365 38.0641C55.3129 38.1076 55.4013 38.1242 55.4879 38.1114C55.5989 38.1206 55.7099 38.0954 55.8065 38.039C55.903 37.9827 55.9806 37.8979 56.0289 37.7957C56.1346 37.5742 56.1885 37.3307 56.1863 37.0843V35.5713H56.978V38.6675Z" fill="#5FA028"/>
<path d="M59.8747 38.3165C59.764 38.4588 59.6204 38.5707 59.4566 38.6422C59.2902 38.7132 59.1108 38.7473 58.9304 38.7424C58.7411 38.7608 58.5504 38.7279 58.3777 38.647C58.2049 38.566 58.0563 38.4399 57.9469 38.2815C57.7301 37.9332 57.6221 37.5262 57.637 37.1141C57.6194 36.704 57.7259 36.2983 57.942 35.9518C58.0526 35.795 58.2016 35.6705 58.3742 35.5905C58.5467 35.5105 58.7368 35.4779 58.9255 35.4959C59.0995 35.4912 59.2723 35.5276 59.4301 35.6024C59.588 35.6772 59.7267 35.7882 59.8353 35.9267V34.1582H60.6271V38.6672H59.8599L59.8747 38.3165ZM59.1517 38.1111C59.2597 38.1172 59.3671 38.0917 59.4612 38.0375C59.5553 37.9833 59.6323 37.9028 59.6829 37.8055C59.7979 37.5906 59.8556 37.3488 59.8501 37.1041C59.854 36.8631 59.7928 36.6256 59.673 36.4177C59.6204 36.3225 59.5429 36.244 59.4492 36.1909C59.3554 36.1379 59.2491 36.1123 59.1419 36.1171C59.0402 36.1134 58.9396 36.1398 58.8523 36.1932C58.765 36.2465 58.6948 36.3245 58.6501 36.4177C58.5451 36.6304 58.4927 36.8661 58.4977 37.1041C58.4938 37.349 58.5478 37.5913 58.655 37.8105C58.701 37.9037 58.7722 37.9815 58.8602 38.0348C58.9483 38.0881 59.0494 38.1146 59.1517 38.1111Z" fill="#5FA028"/>
<path d="M62.909 35.4961C63.1232 35.485 63.3373 35.5203 63.5372 35.5995C63.7371 35.6788 63.9183 35.8003 64.0688 35.956C64.2193 36.1117 64.3357 36.2981 64.4105 36.5029C64.4852 36.7077 64.5165 36.9264 64.5023 37.1444C64.5085 37.3546 64.4734 37.5639 64.3991 37.7601C64.3248 37.9562 64.2128 38.1353 64.0696 38.2867C63.7509 38.5786 63.3375 38.74 62.909 38.74C62.4804 38.74 62.067 38.5786 61.7484 38.2867C61.5199 38.0571 61.3643 37.7628 61.3018 37.4421C61.2392 37.1214 61.2727 36.7889 61.3977 36.4878C61.5227 36.1866 61.7336 35.9306 62.003 35.7529C62.2725 35.5752 62.5881 35.484 62.909 35.4911V35.4961ZM62.909 38.1214C63.026 38.1308 63.1432 38.1067 63.2475 38.0518C63.3518 37.9969 63.4389 37.9134 63.4991 37.8107C63.6239 37.5758 63.685 37.3112 63.6761 37.0442C63.6818 36.8111 63.6128 36.5824 63.4794 36.3929C63.4131 36.3039 63.3265 36.2328 63.2271 36.1856C63.1277 36.1385 63.0185 36.1168 62.909 36.1224C62.8001 36.1167 62.6916 36.1384 62.593 36.1856C62.4944 36.2328 62.4086 36.304 62.3434 36.3929C62.2101 36.5824 62.141 36.8111 62.1467 37.0442C62.1384 37.3106 62.1976 37.5746 62.3188 37.8107C62.379 37.9134 62.4661 37.9969 62.5704 38.0518C62.6747 38.1067 62.7919 38.1308 62.909 38.1214Z" fill="#5FA028"/>
<path d="M64.8367 35.5713H65.6777L66.3465 37.8609L66.976 35.5713H67.8907L68.5546 37.8559L69.1989 35.5713H69.9562L69.0218 38.6675H68.0874L67.4284 36.3028L66.7694 38.6675H65.8646L64.8367 35.5713Z" fill="#5FA028"/>
<path d="M70.5021 34.1582H71.3086V38.6672H70.5169L70.5021 34.1582Z" fill="#5FA028"/>
<path d="M72.3217 35.7314C72.6533 35.576 73.014 35.4957 73.379 35.4959C73.7337 35.4681 74.0855 35.5792 74.3626 35.8065C74.4761 35.9446 74.5615 36.1043 74.6139 36.2763C74.6662 36.4483 74.6844 36.6293 74.6675 36.8085V37.9759L74.7167 38.6673H74.0183C74.0037 38.5878 73.9938 38.5075 73.9888 38.4268C73.9888 38.3516 73.9888 38.2765 73.9888 38.2013C73.8956 38.3721 73.7555 38.5114 73.5856 38.6021C73.4178 38.6942 73.2302 38.7424 73.0397 38.7424C72.7704 38.7495 72.5067 38.6629 72.2922 38.4969C72.19 38.4185 72.108 38.316 72.0531 38.1982C71.9983 38.0804 71.9723 37.9508 71.9774 37.8206C71.9694 37.6287 72.0173 37.4386 72.1151 37.2745C72.2033 37.1333 72.3274 37.019 72.4741 36.9438C72.6287 36.8662 72.7949 36.8154 72.9659 36.7935C73.1484 36.7672 73.3324 36.7538 73.5167 36.7534H73.9544C73.9623 36.6631 73.9519 36.572 73.924 36.4859C73.8961 36.3997 73.8512 36.3203 73.7921 36.2524C73.6485 36.1281 73.464 36.0637 73.2757 36.0721C73.1084 36.0729 72.9422 36.1017 72.784 36.1572C72.6239 36.2188 72.4732 36.3031 72.3364 36.4077L72.3217 35.7314ZM73.2462 38.1562C73.3528 38.1572 73.4581 38.1328 73.5537 38.085C73.6493 38.0371 73.7327 37.9672 73.797 37.8807C73.8626 37.7955 73.908 37.696 73.9298 37.5901C73.9564 37.4735 73.9696 37.3541 73.9692 37.2344H73.6249C73.4117 37.2297 73.1996 37.2672 73.0003 37.3446C72.9178 37.3787 72.8483 37.4391 72.8023 37.5168C72.7562 37.5944 72.736 37.6852 72.7446 37.7755C72.7407 37.8312 72.7514 37.8871 72.7756 37.9372C72.7998 37.9874 72.8366 38.0301 72.8823 38.061C72.9909 38.1307 73.1182 38.164 73.2462 38.1562Z" fill="#5FA028"/>
<path d="M75.5232 35.5713H76.2756V35.9921C76.3854 35.8287 76.5367 35.6989 76.7133 35.6163C76.8921 35.5328 77.0871 35.4916 77.2838 35.4961C77.4297 35.4854 77.576 35.5098 77.7109 35.5672C77.8459 35.6246 77.9657 35.7135 78.0608 35.8268C78.2434 36.0837 78.3336 36.3968 78.3165 36.7135V38.6674H77.5247V37.0141C77.5326 36.7934 77.5027 36.573 77.4362 36.3628C77.4015 36.281 77.3412 36.2131 77.2648 36.1696C77.1883 36.1261 77.0999 36.1095 77.0133 36.1224C76.9018 36.1136 76.7904 36.1395 76.6938 36.1968C76.5971 36.2541 76.5199 36.3399 76.4723 36.443C76.3661 36.6626 76.3122 36.9046 76.315 37.1494V38.6524H75.5232V35.5713Z" fill="#5FA028"/>
<path d="M80.4509 37.8308L81.1984 35.5713H82L80.859 38.6424C80.7263 39.0082 80.623 39.2637 80.5541 39.414C80.4745 39.5735 80.3601 39.7123 80.2197 39.8198C80.0376 39.9502 79.8174 40.0138 79.5952 40.0001C79.4052 40.0006 79.2162 39.9719 79.0345 39.915L79.0886 39.3238C79.2213 39.3618 79.359 39.3787 79.4968 39.3739C79.5668 39.3778 79.6368 39.3664 79.7021 39.3405C79.7674 39.3145 79.8265 39.2747 79.8755 39.2236C79.9685 39.1122 80.016 38.9688 80.0083 38.8228L78.8477 35.5713H79.723L80.4509 37.8308Z" fill="#5FA028"/>
</g>
<defs>
<clipPath id="clip0_28455_3234">
<rect width="82" height="40" fill="white"/>
</clipPath>
</defs>
</svg>
