<svg width="137" height="30" viewBox="0 0 137 30" fill="none" xmlns="http://www.w3.org/2000/svg">
<g clip-path="url(#clip0_28455_3221)">
<path d="M50.9901 0.0391739C63.5289 -0.845492 71.7619 12.8963 64.6705 23.4206C58.4142 32.7063 44.5576 32.0248 39.1233 22.2803C33.826 12.8046 40.2389 0.799331 50.9901 0.0391739ZM51.0684 1.08111C41.5958 1.77574 35.5613 11.9265 39.4625 20.6617C43.6573 30.0654 56.3788 31.9461 62.9613 23.9448C70.8812 14.3183 63.4049 0.176789 51.0749 1.08111H51.0684Z" fill="#08296C"/>
<path d="M35.0655 5.93066L27.0151 19.7511H34.3479V25.1836H17.8491L26.0626 10.721H18.8081V5.93066H35.0655Z" fill="#08296C"/>
<path d="M77.7051 18.8727V25.1046H72.8449V6.40869H81.1758C85.4815 6.78877 87.2886 9.62625 86.9493 13.8006C86.7406 16.3497 84.4507 18.8727 81.8086 18.8727H77.7051ZM77.7051 14.9605H79.8971C80.3016 14.9605 81.2084 14.5542 81.4889 14.2331C82.1674 13.4664 82.0826 11.6774 81.3389 10.9565C81.0388 10.6682 80.2233 10.3209 79.8188 10.3209H77.7051V14.9539V14.9605Z" fill="#08296C"/>
<path d="M15.8594 5.93066V10.6423H10.7578V25.105H5.10162V10.6423H0V5.93066H15.8594Z" fill="#08296C"/>
<path d="M132.538 13.7616V12.5623H137V25.1049H132.538V23.7485L131.859 24.4627C125.812 28.2373 119.855 20.9634 123.339 15.1246C125.205 11.9988 129.915 11.0224 132.538 13.7616ZM131.872 16.8219C129.204 14.1482 125.159 18.1718 127.71 20.793C130.391 23.5453 134.514 19.4693 131.872 16.8219Z" fill="#08296C"/>
<path d="M94.667 12.1888C99.4098 11.7956 103.833 14.9411 102.933 20.0787C101.687 27.1757 89.872 27.3985 88.1888 20.4784C87.1059 16.0355 90.3613 12.5492 94.667 12.1888ZM95.0584 16.0158C94.0277 16.16 93.0426 17.0184 92.7425 18.0079C91.9857 20.5178 94.9736 22.6213 97.1265 21.1272C99.7034 19.3448 98.0333 15.6095 95.0584 16.0158Z" fill="#08296C"/>
<path d="M121.141 4.73147V8.56502C120.847 8.56502 120.632 8.35533 120.351 8.28324C119.575 8.0801 118.662 8.23737 118.257 8.99097C118.146 9.19412 117.95 9.75768 117.95 9.96083V12.5558H121.056V16.2321H117.95V25.0984H113.488V16.2321H111.896V12.5558H113.488V9.23999C113.488 8.92544 113.749 8.03422 113.867 7.70002C114.95 4.67249 118.264 3.68298 121.141 4.72492V4.73147Z" fill="#08296C"/>
<path d="M110.063 4.65283H105.601V25.105H110.063V4.65283Z" fill="#08296C"/>
<path d="M53.3191 12.8834H61.5261V18.6763L61.4086 18.7943H53.3191V25.1835H47.4999V18.7091H40.4085V12.8769H47.4999V7.44435C49.9724 6.7104 52.2818 5.49153 54.7087 4.64618C56.7441 3.93845 59.1971 3.38799 60.8867 5.16388C63.8616 8.27659 59.8625 13.27 56.2026 10.8978C54.8979 10.0525 54.9174 9.253 54.389 8.00136C54.0954 7.31329 53.3126 7.74579 53.3126 7.96204V12.8769L53.3191 12.8834Z" fill="#08296C"/>
</g>
<defs>
<clipPath id="clip0_28455_3221">
<rect width="137" height="30" fill="white"/>
</clipPath>
</defs>
</svg>
